<svg xmlns="http://www.w3.org/2000/svg" width="32.213" height="31.18" viewBox="0 0 32.213 31.18">
    <path id="angle-double-down" d="M429.213,412.074a1.021,1.021,0,0,1-.323.742l-15.041,15.041a1.015,1.015,0,0,1-1.485,0l-15.041-15.041a1.015,1.015,0,0,1,0-1.485l1.614-1.614a1.015,1.015,0,0,1,1.485,0L413.107,422.4l12.685-12.685a1.015,1.015,0,0,1,1.485,0l1.614,1.614A1.021,1.021,0,0,1,429.213,412.074Zm0-12.395a1.021,1.021,0,0,1-.323.742l-15.041,15.041a1.015,1.015,0,0,1-1.485,0l-15.041-15.041a1.015,1.015,0,0,1,0-1.485l1.614-1.614a1.015,1.015,0,0,1,1.485,0l12.685,12.685,12.685-12.685a1.015,1.015,0,0,1,1.485,0l1.614,1.614A1.021,1.021,0,0,1,429.213,399.679Z" transform="translate(-397 -397)" fill="#fff"/>
</svg>